<svg width="182" height="181" viewBox="0 0 182 181" fill="none" xmlns="http://www.w3.org/2000/svg">
<path d="M0 95.5C0 92.7386 2.23858 90.5 5 90.5H86C88.7614 90.5 91 92.7386 91 95.5V176C91 178.761 88.7614 181 86 181H5C2.23858 181 0 178.761 0 176V95.5Z" fill="#FF4D00"/>
<path d="M45.5 5C45.5 2.23857 47.7386 0 50.5 0H177C179.761 0 182 2.23858 182 5V130.75C182 133.511 179.761 135.75 177 135.75H50.5C47.7386 135.75 45.5 133.511 45.5 130.75V5Z" fill="#AFAFDD"/>
<path d="M90.5473 130.975C90.5473 133.737 88.3087 135.975 85.5473 135.975H50.2737C47.5122 135.975 45.2737 133.737 45.2737 130.975V95.9503C45.2737 93.1888 47.5122 90.9503 50.2737 90.9503H85.5473C88.3087 90.9503 90.5473 93.1888 90.5473 95.9503V130.975Z" fill="white"/>
</svg>
